<svg xmlns="http://www.w3.org/2000/svg" viewBox="0 0 48 48">
  <path fill="#1565C0" d="M10 8h28c1.1 0 2 .9 2 2v6H8v-6c0-1.1.9-2 2-2z"/>
  <path fill="#1E88E5" d="M8 16h32v8H8z"/>
  <path fill="#1E88E5" d="M8 28h32v8H8z"/>
  <path fill="#42A5F5" d="M8 24h32v8H8z"/>
  <path fill="#1565C0" d="M8 32h32v6c0 1.1-.9 2-2 2H10c-1.1 0-2-.9-2-2v-6z"/>
  <path fill="#fff" d="M16 14h16v2H16zm0 8h16v2H16zm0 8h16v2H16z" opacity=".5"/>
  <circle cx="12" cy="15" r="1.5" fill="#fff"/>
  <circle cx="12" cy="23" r="1.5" fill="#fff"/>
  <circle cx="12" cy="31" r="1.5" fill="#fff"/>
</svg>
