<svg xmlns="http://www.w3.org/2000/svg" viewBox="0 0 101 101">
  <path d="M57.8 0H43.2v28.6L50.5 39l7.3-10.4V0z" fill="#fff"/>
  <path d="M43.2 101H57.8V72.4L50.5 62l-7.3 10.4V101z" fill="#fff"/>
  <path d="M28.6 50.5 0 43.2v14.6l28.6-7.3zM101 43.2l-28.6 7.3L101 57.8V43.2z" fill="#fff"/>
  <path d="m57.8 0-7.3 28.6L43.2 0h14.6z" fill="#00F2E6"/>
  <path d="m43.2 101 7.3-28.6 7.3 28.6H43.2z" fill="#00F2E6"/>
  <path d="m57.8 28.6 18.9-21L66 .3 50.5 17.2l7.3 11.4z" fill="#00B9F1"/>
  <path d="M43.2 72.4 24.3 93.5l10.7 7.2L50.5 83.8l-7.3-11.4z" fill="#00B9F1"/>
  <path d="m76.7 7.6-18.9 21 13.8 7.2L101 43.2l-7.2-10.7L76.7 7.6z" fill="#D63AFF"/>
  <path d="m24.3 93.5 18.9-21.1-13.8-7.2L0 57.8l7.2 10.7 17.1 25z" fill="#D63AFF"/>
  <path d="M101 43.2 71.6 35.8l7.2 14.7L101 57.8V43.2z" fill="#FB015B"/>
  <path d="M0 57.8l29.4 7.4-7.2-14.7L0 43.2v14.6z" fill="#FB015B"/>
</svg>
