<svg xmlns="http://www.w3.org/2000/svg" viewBox="0 0 24 24">
  <path d="M.113 13.029c.057.18.122.357.197.529l8.148-.004c.093-.176.148-.38.148-.596V9.26c0-.693-.542-1.255-1.21-1.255H.998C.458 9.7.142 11.385.113 13.029Zm14.735-5.024H9.61c-.693 0-1.255.562-1.255 1.255v3.698c0 .693.562 1.255 1.255 1.255l.118-.004 5.138-.004c.693 0 1.255-.562 1.255-1.255V9.26c0-.688-.557-1.247-1.243-1.255h-.03ZM23.887 13.03c-.03-1.645-.345-3.331-.886-5.024H17.7c-.668 0-1.21.562-1.21 1.255v3.698c0 .216.056.42.148.596l8.148.004c.074-.172.14-.348.197-.53h-.095ZM5.166 5.995h13.67a14.074 14.074 0 0 0-1.17-1.88H6.336c-.422.585-.815 1.215-1.17 1.88ZM12 .202C10.768.202 9.2.89 7.825 2.074h8.35C14.8.89 13.232.203 12 .203Zm9.405 16.07L2.595 16.276a12.097 12.097 0 0 0 1.16 1.88h16.49a12.12 12.12 0 0 0 1.16-1.884ZM16.176 20.2H7.824C9.2 21.38 10.768 22.07 12 22.07c1.232 0 2.8-.69 4.176-1.87Z" fill="#000"/>
</svg>
