<svg xmlns="http://www.w3.org/2000/svg" viewBox="0 0 24 24">
  <path d="M 4.854 1.893 C 2.293 3.401 0.581 6.162 0.5 9.345 L 4.2 9.345 C 4.2 7.503 5.05 5.865 6.379 4.768 Z M 9.5 0.5 C 8.1 0.5 6.8 0.8 5.6 1.4 L 7.2 5 C 7.9 4.7 8.7 4.5 9.5 4.5 L 9.5 0.5 Z M 14.5 0.5 L 14.5 4.5 C 15.3 4.5 16.1 4.7 16.8 5 L 18.4 1.4 C 17.2 0.8 15.9 0.5 14.5 0.5 Z M 23.5 9.345 L 19.8 9.345 C 19.8 7.503 18.95 5.865 17.621 4.768 L 19.146 1.893 C 21.707 3.401 23.419 6.162 23.5 9.345 Z" fill="#46E3B7"/>
  <rect x="0.5" y="11.5" width="3.7" height="3.7" rx="0.5" fill="#46E3B7"/>
  <rect x="0.5" y="17" width="3.7" height="3.7" rx="0.5" fill="#46E3B7"/>
  <rect x="6.2" y="11.5" width="3.7" height="3.7" rx="0.5" fill="#46E3B7"/>
  <rect x="11.9" y="11.5" width="3.7" height="3.7" rx="0.5" fill="#46E3B7"/>
  <rect x="6.2" y="17" width="3.7" height="3.7" rx="0.5" fill="#46E3B7"/>
  <rect x="17.6" y="11.5" width="3.7" height="3.7" rx="0.5" fill="#46E3B7"/>
</svg>
